<svg xmlns="http://www.w3.org/2000/svg" viewBox="0 0 64 64">
    <g id="cctv">
        <path style="fill:#1a71f3;" d="M50.93,30.32c4.58,1.65,8.74-2.53,6-6.82Z"/>
        <path style="fill:#1a71f3;" d="M45.66,21.13a1,1,0,0,1,.38-2l10.29,2,1.76-2-41.2-8-.44,2.25,23.26,4.51a1,1,0,0,1-.38,2L16.07,15.4,14,26.08l32.45,6.29L54.8,22.9Zm-3-.59a1,1,0,1,1,.18-2A1,1,0,0,1,42.7,20.54Z"/>
        <path style="fill:#1a71f3;" d="M23.08,32.75l-1.41,10.6a3.18,3.18,0,0,0-2.46,2.16H7.05a3.2,3.2,0,0,0-3-2.22v6.44a3.2,3.2,0,0,0,3.05-2.22H19.21c2.5,5.63,9.69-.68,4.44-3.89L25,33.55a3.2,3.2,0,0,0,3.4-2.63l-6.34-1.14A3.24,3.24,0,0,0,23.08,32.75Z"/>
    </g>
</svg>